<?xml version="1.0" standalone="no"?><!DOCTYPE svg PUBLIC "-//W3C//DTD SVG 1.1//EN" "http://www.w3.org/Graphics/SVG/1.1/DTD/svg11.dtd"><svg t="1578302822314" class="icon" viewBox="0 0 1384 1024" version="1.1" xmlns="http://www.w3.org/2000/svg" p-id="3780" xmlns:xlink="http://www.w3.org/1999/xlink" width="109.4765625" height="81"><defs><style type="text/css"></style></defs><path d="M1201.377969 164.039889H1011.957268a29.993667 29.993667 0 0 1-21.124424-8.636202 29.349379 29.349379 0 0 1-8.759577-20.863967 29.719502 29.719502 0 0 1 29.884001-29.541295h30.651664a52.502626 52.502626 0 1 0 0-104.991543H764.975595a52.502626 52.502626 0 1 0 0 104.991543h56.902977a29.527586 29.527586 0 0 1 0 59.041464h-78.137068c-44.52442 0-80.604553 35.641469-80.604553 79.713517s36.080133 79.699808 80.604553 79.699809h457.636465c44.497003 0 80.590845-35.641469 80.590845-79.699809s-36.093842-79.713517-80.590845-79.713517zM562.833632 842.269632h-109.282228a33.160275 33.160275 0 1 1 0-66.320549h34.421434a59.94621 59.94621 0 0 0 42.152892-17.299821 58.534259 58.534259 0 0 0 0-83.359913 59.94621 59.94621 0 0 0-42.152892-17.272405H59.617211a59.905085 59.905085 0 0 0-42.152891 17.272405 58.479426 58.479426 0 0 0 0 83.359913 59.959918 59.959918 0 0 0 42.1666 17.272404h180.4555a33.173983 33.173983 0 1 1 0 66.347966h-94.353936c-49.980306 0-90.474499 40.069236-90.474498 89.501212s40.507901 89.487504 90.474498 89.487505h417.101148c49.980306 0 90.474499-40.069236 90.474498-89.487505s-40.480484-89.501212-90.474498-89.501212z m0 0" fill="#FFCB27" opacity=".26" p-id="3781"></path><path d="M518.610793 28.862763l13.872757 13.708258-13.872757 13.708257-13.859048-13.708257z m0 65.799636l-13.859048-13.708258 13.859048-13.708257 13.886465 13.708257z m5.483303-32.899818l13.872757-13.708257 13.872756 13.708257-13.872756 13.708257z m-38.712118 0l13.872756-13.708257 13.872756 13.708257-13.872756 13.708257z m0 0" fill="#FFB000" p-id="3782"></path><path d="M96.423882 643.4999l11.405271 11.268187-11.405271 11.295604-11.40527-11.295604z m0 54.065367l-11.40527-11.295604 11.391562-11.240771 11.40527 11.281896z m4.510017-27.032684l11.40527-11.295604 11.40527 11.295604-11.418978 11.350437z m-31.844282 0l11.40527-11.295604 11.418979 11.295604-11.432687 11.350437z m0 0M972.518612 969.907216l11.40527 11.281896-11.40527 11.281896-11.377854-11.281896z m0 54.092784l-11.377854-11.281896 11.418979-11.281896 11.40527 11.281896z m4.496308-27.046392l11.405271-11.268187 11.40527 11.281895-11.40527 11.281896z m-31.844282 0l11.418979-11.268187 11.40527 11.281895-11.40527 11.281896z m0 0M1357.405355 713.165264l11.418978 11.281896-11.418978 11.281895-11.405271-11.281895z m0 54.092783l-11.405271-11.281895 11.405271-11.295604 11.418978 11.295604z m4.510016-27.046391l11.40527-11.268188 11.405271 11.281896-11.405271 11.281896z m-31.844282 0l11.405271-11.268188 11.418978 11.295604-11.418978 11.268188z m0 0" fill="#FF664D" p-id="3783"></path><path d="M309.121204 186.274683h788.54009v631.690208H309.121204z" fill="#FBEDD7" p-id="3784"></path><path d="M1097.661294 833.94872H309.121204a16.230577 16.230577 0 0 1-11.418978-4.688224 15.874162 15.874162 0 0 1-4.729349-11.295605V186.274683a16.066078 16.066078 0 0 1 16.148327-15.983828h788.54009a16.28541 16.28541 0 0 1 11.432686 4.688224 15.915287 15.915287 0 0 1 4.715641 11.295604v631.690208a15.819329 15.819329 0 0 1-4.715641 11.295605 16.244285 16.244285 0 0 1-11.432686 4.688224z m-772.378054-31.953948h756.216018v-599.736261H325.28324z m-84.196117 179.893461a16.257993 16.257993 0 0 1-11.432687-4.674515 15.956412 15.956412 0 0 1-4.729349-11.295605V38.335169a16.162035 16.162035 0 0 1 32.310363 0v927.582944a15.901579 15.901579 0 0 1-4.729349 11.295605 16.216868 16.216868 0 0 1-11.418978 4.674515z m0 0" fill="#CA3A2A" p-id="3785"></path><path d="M197.138449 87.739729h87.856222v828.773825h-87.856222z" fill="#FFCB27" p-id="3786"></path><path d="M285.008379 932.497382h-87.856221a16.28541 16.28541 0 0 1-11.418979-4.674516 15.901579 15.901579 0 0 1-4.729348-11.295604V87.739729a15.901579 15.901579 0 0 1 4.729348-11.295604 16.216868 16.216868 0 0 1 11.418979-4.674516h87.856221a16.216868 16.216868 0 0 1 11.418979 4.674516 15.901579 15.901579 0 0 1 4.729349 11.295604v828.773825a16.066078 16.066078 0 0 1-16.148328 15.983828z m-71.694186-31.953948h55.559567V103.723557h-55.559567z m0 0" fill="#CA3A2A" p-id="3787"></path><path d="M157.124046 151.29121h167.885028v701.670863H157.124046z" fill="#FF664D" p-id="3788"></path><path d="M325.077616 868.932192H157.137754a16.28541 16.28541 0 0 1-11.432686-4.674515 15.915287 15.915287 0 0 1-4.729349-11.295604V151.29121a16.066078 16.066078 0 0 1 16.162035-15.97012h167.939862a16.066078 16.066078 0 0 1 16.162035 15.97012v701.670863a16.079786 16.079786 0 0 1-16.162035 15.970119z m-151.791534-31.953948h135.574665V167.275038h-135.574665z m0 0M1165.695375 981.888233a16.271702 16.271702 0 0 1-11.432687-4.674515 15.942703 15.942703 0 0 1-4.71564-11.295605V38.335169a15.928995 15.928995 0 0 1 8.074163-13.84534 16.312826 16.312826 0 0 1 16.148328 0 15.942703 15.942703 0 0 1 8.087872 13.84534v927.582944a15.846746 15.846746 0 0 1-4.743058 11.295605 16.175744 16.175744 0 0 1-11.418978 4.674515z m0 0" fill="#CA3A2A" p-id="3789"></path><path d="M1121.774118 87.739729h87.842514v828.773825h-87.842514z" fill="#FFCB27" p-id="3790"></path><path d="M1209.616632 932.497382h-87.828805a16.28541 16.28541 0 0 1-11.432687-4.674516 15.901579 15.901579 0 0 1-4.729349-11.295604V87.739729a15.901579 15.901579 0 0 1 4.729349-11.295604 16.230577 16.230577 0 0 1 11.432687-4.674516h87.828805a16.230577 16.230577 0 0 1 11.432686 4.674516 15.901579 15.901579 0 0 1 4.729349 11.295604v828.773825a15.928995 15.928995 0 0 1-4.729349 11.309312 16.28541 16.28541 0 0 1-11.432686 4.674516z m-71.639353-31.953948h55.53215V103.723557h-55.53215z m0 0" fill="#CA3A2A" p-id="3791"></path><path d="M1081.732299 151.29121H1249.644743v701.670863H1081.732299z" fill="#FF664D" p-id="3792"></path><path d="M1249.658452 868.932192H1081.773423a16.340243 16.340243 0 0 1-11.432686-4.674515 15.956412 15.956412 0 0 1-4.715641-11.295604V151.29121a15.942703 15.942703 0 0 1 4.715641-11.295604 16.340243 16.340243 0 0 1 11.432686-4.674516h167.885029a16.28541 16.28541 0 0 1 11.418978 4.674516 15.901579 15.901579 0 0 1 4.729349 11.295604v701.670863a16.066078 16.066078 0 0 1-16.148327 15.970119z m-151.75041-31.953948h135.588374V167.275038h-135.588374z m0 0" fill="#CA3A2A" p-id="3793"></path><path d="M485.381978 502.126641a215.219641 215.219641 0 0 0 108.994354 186.747591 220.168322 220.168322 0 0 0 217.961292 0 214.451979 214.451979 0 0 0 0-373.481473 220.099781 220.099781 0 0 0-217.961292 0 215.219641 215.219641 0 0 0-108.994354 186.733882z m0 0" fill="#FFCB27" p-id="3794"></path><path d="M703.425519 733.700233c-129.118076 0-234.178161-103.881174-234.17816-231.573592s105.032668-231.5873 234.17816-231.5873 234.150744 103.894883 234.150745 231.5873-105.060085 231.573592-234.150745 231.573592z m0-431.206944c-111.31105 0-201.867798 89.556046-201.867798 199.633352s90.529332 199.619644 201.867798 199.619644 201.840382-89.542337 201.840382-199.619644-90.556748-199.633352-201.840382-199.633352z m0 0" fill="#CA3A2A" p-id="3795"></path><path d="M576.514473 580.154042a16.340243 16.340243 0 0 1-11.432687-4.674515 15.956412 15.956412 0 0 1-4.715641-11.295604V372.624734a16.162035 16.162035 0 0 1 32.310363 0v191.559189a15.928995 15.928995 0 0 1-4.743057 11.295604 16.230577 16.230577 0 0 1-11.418978 4.674515z m0 0" fill="#CA3A2A" p-id="3796"></path><path d="M661.711292 388.594854h-85.196819a16.20316 16.20316 0 0 1-13.996131-7.991914 15.805621 15.805621 0 0 1 0-15.983829 16.189452 16.189452 0 0 1 13.996131-7.978205h85.196819a16.175744 16.175744 0 0 1 13.996131 7.991914 15.778204 15.778204 0 0 1 0 15.97012 16.20316 16.20316 0 0 1-13.996131 7.991914z m0 0" fill="#CA3A2A" p-id="3797"></path><path d="M661.711292 580.154042a16.230577 16.230577 0 0 1-11.418978-4.674515 15.874162 15.874162 0 0 1-4.743057-11.295604V372.624734a16.162035 16.162035 0 0 1 32.310362 0v191.559189a15.915287 15.915287 0 0 1-4.729348 11.295604 16.28541 16.28541 0 0 1-11.418979 4.674515z m0 0" fill="#CA3A2A" p-id="3798"></path><path d="M661.711292 580.154042h-85.196819a16.20316 16.20316 0 0 1-13.996131-7.937081 15.846746 15.846746 0 0 1 0-15.97012 16.20316 16.20316 0 0 1 13.996131-7.991914h85.196819a15.983828 15.983828 0 1 1 0 31.953948z m0-136.506827h-85.196819a16.20316 16.20316 0 0 1-13.996131-7.991914 15.805621 15.805621 0 0 1 0-15.983828 16.216868 16.216868 0 0 1 13.996131-7.978206h85.196819a16.175744 16.175744 0 0 1 13.996131 7.991914 15.805621 15.805621 0 0 1 0 15.983829 16.216868 16.216868 0 0 1-13.996131 7.978205z m0 56.724769h-85.196819a16.20316 16.20316 0 0 1-13.996131-7.991914 15.846746 15.846746 0 0 1 0-15.97012 16.20316 16.20316 0 0 1 13.996131-7.991914h85.196819a15.983828 15.983828 0 1 1 0 31.953948z m0 0" fill="#CA3A2A" p-id="3799"></path><path d="M576.528181 663.171249a16.230577 16.230577 0 0 1-12.66643-6.045341 15.764496 15.764496 0 0 1-3.002108-13.626008l18.410189-78.137067a16.052369 16.052369 0 0 1 7.196835-9.965903 16.299118 16.299118 0 0 1 12.214058-1.97399 16.134619 16.134619 0 0 1 10.048152 7.128294 15.819329 15.819329 0 0 1 2.015114 12.063267l-18.423898 78.137067a16.120911 16.120911 0 0 1-15.723371 12.337432z m85.183111 0a16.175744 16.175744 0 0 1-15.079083-10.253776l-20.863968-53.736369a15.819329 15.819329 0 0 1 2.52232-15.778205 16.230577 16.230577 0 0 1 27.635847 4.33181l20.877676 53.72266a15.860454 15.860454 0 0 1-1.768366 14.777502 16.216868 16.216868 0 0 1-13.324426 6.936378z m223.060764-254.603464H688.00373a15.983828 15.983828 0 1 1 0-31.953948h196.768326a15.983828 15.983828 0 1 1 0 31.953948z m0 0" fill="#CA3A2A" p-id="3800"></path><path d="M828.568201 663.171249a16.066078 16.066078 0 0 1-16.148327-15.983828V331.321754a15.928995 15.928995 0 0 1 8.074164-13.831631 16.271702 16.271702 0 0 1 16.162035 0 15.928995 15.928995 0 0 1 8.074164 13.831631v315.865667a15.874162 15.874162 0 0 1-4.729349 11.295604 16.244285 16.244285 0 0 1-11.432687 4.688224z m0 0" fill="#CA3A2A" p-id="3801"></path><path d="M828.568201 663.171249h-76.135661a16.20316 16.20316 0 0 1-13.982423-7.991914 15.805621 15.805621 0 0 1 0-15.983828 16.175744 16.175744 0 0 1 13.982423-7.991914h76.135661a16.175744 16.175744 0 0 1 13.996131 7.991914 15.805621 15.805621 0 0 1 0 15.983828 16.216868 16.216868 0 0 1-13.996131 7.991914z m-113.66887 0a16.257993 16.257993 0 0 1-12.241474-5.483303 15.97012 15.97012 0 0 1-3.769771-12.776096l37.574334-254.617172a15.874162 15.874162 0 0 1 6.319506-10.527942 16.326535 16.326535 0 0 1 22.618625 3.276273 15.846746 15.846746 0 0 1 3.029525 11.857643l-37.588042 254.589756a16.134619 16.134619 0 0 1-15.97012 13.708258z m0 0M241.073414 280.738285a16.066078 16.066078 0 0 1-16.148327-15.983829v-38.38312a16.162035 16.162035 0 0 1 32.310363 0v38.38312a16.079786 16.079786 0 0 1-16.162036 15.983829z m0 401.651941a16.28541 16.28541 0 0 1-11.418978-4.674516 15.901579 15.901579 0 0 1-4.729349-11.295604V599.468977a16.162035 16.162035 0 0 1 32.310363 0v66.951129a15.901579 15.901579 0 0 1-4.729349 11.295604 16.28541 16.28541 0 0 1-11.432687 4.674516z m0-133.88855a16.216868 16.216868 0 0 1-11.418978-4.674516 15.901579 15.901579 0 0 1-4.729349-11.309312v-66.937421a16.162035 16.162035 0 0 1 32.310363 0v66.882588a15.901579 15.901579 0 0 1-4.729349 11.309312 16.230577 16.230577 0 0 1-11.432687 4.674516z m0-133.874842a16.052369 16.052369 0 0 1-16.148327-15.970119v-66.937421a16.162035 16.162035 0 0 1 32.310363 0v66.937421a16.066078 16.066078 0 0 1-16.162036 15.915286z m0 373.056517a16.28541 16.28541 0 0 1-11.418978-4.688224 15.901579 15.901579 0 0 1-4.729349-11.295604v-38.383121a16.162035 16.162035 0 0 1 32.310363 0v38.383121a15.901579 15.901579 0 0 1-4.729349 11.295604 16.299118 16.299118 0 0 1-11.432687 4.688224z m0 0M1165.284127 280.738285a16.079786 16.079786 0 0 1-16.162035-15.983829v-38.38312a15.942703 15.942703 0 0 1 8.087872-13.831632 16.312826 16.312826 0 0 1 16.148327 0 15.928995 15.928995 0 0 1 8.074164 13.831632v38.38312a16.066078 16.066078 0 0 1-16.148328 15.983829z m0 401.651941a16.312826 16.312826 0 0 1-11.432686-4.674516 15.956412 15.956412 0 0 1-4.729349-11.295604V599.468977a15.928995 15.928995 0 0 1 8.087872-13.831632 16.244285 16.244285 0 0 1 16.148327 0 15.915287 15.915287 0 0 1 8.074164 13.831632v66.951129a15.901579 15.901579 0 0 1-4.729349 11.295604 16.257993 16.257993 0 0 1-11.418979 4.674516z m0-133.88855a16.257993 16.257993 0 0 1-11.432686-4.674516 15.956412 15.956412 0 0 1-4.729349-11.309312v-66.937421a15.942703 15.942703 0 0 1 8.087872-13.831632 16.312826 16.312826 0 0 1 16.148327 0 15.928995 15.928995 0 0 1 8.074164 13.831632v66.882588a15.901579 15.901579 0 0 1-4.729349 11.309312 16.189452 16.189452 0 0 1-11.418979 4.674516z m0-133.874842a16.312826 16.312826 0 0 1-11.432686-4.674515 15.956412 15.956412 0 0 1-4.729349-11.295604v-66.937421a15.942703 15.942703 0 0 1 8.087872-13.84534 16.312826 16.312826 0 0 1 16.148327 0 15.928995 15.928995 0 0 1 8.074164 13.84534v66.937421a15.901579 15.901579 0 0 1-4.729349 11.295604 16.257993 16.257993 0 0 1-11.418979 4.674515z m0 373.056517a16.326535 16.326535 0 0 1-11.432686-4.688224 15.956412 15.956412 0 0 1-4.729349-11.295604v-38.383121a15.942703 15.942703 0 0 1 8.087872-13.831632 16.312826 16.312826 0 0 1 16.148327 0 15.928995 15.928995 0 0 1 8.074164 13.831632v38.383121a15.901579 15.901579 0 0 1-4.729349 11.295604 16.271702 16.271702 0 0 1-11.418979 4.688224z m0 0" fill="#CA3A2A" p-id="3802"></path></svg>